<svg xmlns="http://www.w3.org/2000/svg" width="64" height="64" viewBox="0 0 64 64" shape-rendering="crispEdges">
  <rect width="64" height="64" fill="none"/>
  <rect x="16" y="10" width="32" height="8" fill="#78350f"/>
  <rect x="14" y="18" width="36" height="10" fill="#b45309"/>
  <rect x="20" y="28" width="24" height="8" fill="#e8a981"/>
  <rect x="22" y="29" width="6" height="4" fill="#111827"/>
  <rect x="36" y="29" width="6" height="4" fill="#111827"/>
  <rect x="28" y="36" width="8" height="3" fill="#7c2d12"/>
  <rect x="18" y="40" width="28" height="14" fill="#1e293b"/>
  <rect x="24" y="40" width="16" height="14" fill="#16a34a"/>
  <rect x="12" y="42" width="6" height="10" fill="#e8a981"/>
  <rect x="46" y="42" width="6" height="10" fill="#e8a981"/>
  <rect x="22" y="54" width="8" height="6" fill="#111827"/>
  <rect x="34" y="54" width="8" height="6" fill="#111827"/>
  <rect x="6" y="48" width="10" height="6" fill="#22c55e"/>
  <rect x="48" y="46" width="10" height="8" fill="#38bdf8"/>
</svg>
