<svg xmlns="http://www.w3.org/2000/svg" width="64" height="64" viewBox="0 0 64 64" shape-rendering="crispEdges">
  <rect width="64" height="64" fill="none"/>
  <rect x="18" y="8" width="28" height="10" fill="#111827"/>
  <rect x="16" y="18" width="32" height="8" fill="#334155"/>
  <rect x="20" y="26" width="24" height="10" fill="#d6a47a"/>
  <rect x="22" y="28" width="6" height="4" fill="#0f172a"/>
  <rect x="36" y="28" width="6" height="4" fill="#0f172a"/>
  <rect x="28" y="36" width="8" height="3" fill="#7f1d1d"/>
  <rect x="18" y="40" width="28" height="14" fill="#f8fafc"/>
  <rect x="24" y="40" width="16" height="14" fill="#1d4ed8"/>
  <rect x="12" y="42" width="6" height="10" fill="#d6a47a"/>
  <rect x="46" y="42" width="6" height="10" fill="#d6a47a"/>
  <rect x="22" y="54" width="8" height="6" fill="#111827"/>
  <rect x="34" y="54" width="8" height="6" fill="#111827"/>
  <rect x="48" y="12" width="4" height="18" fill="#22c55e"/>
  <rect x="44" y="18" width="12" height="2" fill="#22c55e"/>
</svg>
