<svg xmlns="http://www.w3.org/2000/svg" width="32" height="48" shape-rendering="crispEdges" viewBox="0 0 32 48"><rect width="10" height="2" x="11" y="2" fill="#2d1b00"/><rect width="14" height="3" x="9" y="4" fill="#3b2200"/><rect width="12" height="8" x="10" y="7" fill="#f5c9a0"/><rect width="2" height="2" x="12" y="10" fill="#1a0a00"/><rect width="2" height="2" x="18" y="10" fill="#1a0a00"/><rect width="4" height="1" x="11" y="9" fill="#444"/><rect width="4" height="1" x="17" y="9" fill="#444"/><rect width="2" height="1" x="15" y="9" fill="#444"/><rect width="1" height="4" x="10" y="9" fill="#444"/><rect width="1" height="4" x="15" y="9" fill="#444"/><rect width="1" height="4" x="21" y="9" fill="#444"/><rect width="4" height="1" x="14" y="13" fill="#c08060"/><rect width="4" height="2" x="14" y="15" fill="#f5c9a0"/><rect width="12" height="1" x="10" y="17" fill="#e8e8e8"/><rect width="16" height="14" x="8" y="18" fill="#555e6e"/><rect width="2" height="6" x="13" y="18" fill="#f0f0f0"/><rect width="2" height="6" x="17" y="18" fill="#f0f0f0"/><rect width="2" height="8" x="15" y="18" fill="#b22222"/><rect width="5" height="7" x="22" y="20" fill="#d4a85a"/><rect width="3" height="2" x="23" y="18" fill="#888"/><rect width="3" height="1" x="23" y="21" fill="#fff"/><rect width="3" height="1" x="23" y="23" fill="#ccc"/><rect width="2" height="1" x="23" y="25" fill="#ccc"/><rect width="4" height="10" x="5" y="18" fill="#555e6e"/><rect width="4" height="3" x="5" y="28" fill="#f5c9a0"/><rect width="16" height="10" x="8" y="32" fill="#1e2a4a"/><rect width="7" height="6" x="8" y="38" fill="#1e2a4a"/><rect width="7" height="6" x="17" y="38" fill="#1e2a4a"/><rect width="8" height="3" x="7" y="44" fill="#1a1a1a"/><rect width="8" height="3" x="17" y="44" fill="#1a1a1a"/></svg>